<mxfile host="Electron" agent="Mozilla/5.0 (Windows NT 10.0; Win64; x64) AppleWebKit/537.36 (KHTML, like Gecko) draw.io/24.7.17 Chrome/128.0.6613.36 Electron/32.0.1 Safari/537.36" version="24.7.17">
  <diagram name="Page-1" id="iTDB4_EBd4LGMhulw3i1">
    <mxGraphModel dx="1102" dy="570" grid="1" gridSize="10" guides="1" tooltips="1" connect="1" arrows="1" fold="1" page="1" pageScale="1" pageWidth="850" pageHeight="1100" math="0" shadow="0">
      <root>
        <mxCell id="0" />
        <mxCell id="1" parent="0" />
        <mxCell id="2oQSMmsDDmATqCNCnr3x-1" value="Comment" style="rounded=1;arcSize=10;whiteSpace=wrap;html=1;align=center;" parent="1" vertex="1">
          <mxGeometry x="360" y="340" width="100" height="40" as="geometry" />
        </mxCell>
        <mxCell id="2oQSMmsDDmATqCNCnr3x-2" value="Commenter" style="ellipse;whiteSpace=wrap;html=1;align=center;" parent="1" vertex="1">
          <mxGeometry x="20" y="240" width="100" height="40" as="geometry" />
        </mxCell>
        <mxCell id="2oQSMmsDDmATqCNCnr3x-3" value="Course" style="ellipse;whiteSpace=wrap;html=1;align=center;" parent="1" vertex="1">
          <mxGeometry x="130" y="240" width="100" height="40" as="geometry" />
        </mxCell>
        <mxCell id="2oQSMmsDDmATqCNCnr3x-5" value="Status" style="ellipse;whiteSpace=wrap;html=1;align=center;" parent="1" vertex="1">
          <mxGeometry x="360" y="240" width="100" height="40" as="geometry" />
        </mxCell>
        <mxCell id="2oQSMmsDDmATqCNCnr3x-6" value="IsVisibleForAll" style="ellipse;whiteSpace=wrap;html=1;align=center;" parent="1" vertex="1">
          <mxGeometry x="470" y="240" width="100" height="40" as="geometry" />
        </mxCell>
        <mxCell id="2oQSMmsDDmATqCNCnr3x-8" value="Content" style="ellipse;whiteSpace=wrap;html=1;align=center;" parent="1" vertex="1">
          <mxGeometry x="690" y="240" width="100" height="40" as="geometry" />
        </mxCell>
        <mxCell id="2oQSMmsDDmATqCNCnr3x-9" value="ReplyComment" style="ellipse;shape=doubleEllipse;margin=3;whiteSpace=wrap;html=1;align=center;" parent="1" vertex="1">
          <mxGeometry x="240" y="240" width="110" height="40" as="geometry" />
        </mxCell>
        <mxCell id="2oQSMmsDDmATqCNCnr3x-10" value="" style="endArrow=none;html=1;rounded=0;" parent="1" source="2oQSMmsDDmATqCNCnr3x-2" target="2oQSMmsDDmATqCNCnr3x-1" edge="1">
          <mxGeometry relative="1" as="geometry">
            <mxPoint x="150" y="350" as="sourcePoint" />
            <mxPoint x="310" y="350" as="targetPoint" />
          </mxGeometry>
        </mxCell>
        <mxCell id="2oQSMmsDDmATqCNCnr3x-11" value="" style="endArrow=none;html=1;rounded=0;" parent="1" source="2oQSMmsDDmATqCNCnr3x-3" target="2oQSMmsDDmATqCNCnr3x-1" edge="1">
          <mxGeometry relative="1" as="geometry">
            <mxPoint x="130" y="282" as="sourcePoint" />
            <mxPoint x="370" y="355" as="targetPoint" />
          </mxGeometry>
        </mxCell>
        <mxCell id="2oQSMmsDDmATqCNCnr3x-12" value="" style="endArrow=none;html=1;rounded=0;" parent="1" source="2oQSMmsDDmATqCNCnr3x-9" target="2oQSMmsDDmATqCNCnr3x-1" edge="1">
          <mxGeometry relative="1" as="geometry">
            <mxPoint x="233" y="285" as="sourcePoint" />
            <mxPoint x="376" y="350" as="targetPoint" />
          </mxGeometry>
        </mxCell>
        <mxCell id="2oQSMmsDDmATqCNCnr3x-13" value="" style="endArrow=none;html=1;rounded=0;" parent="1" source="2oQSMmsDDmATqCNCnr3x-5" target="2oQSMmsDDmATqCNCnr3x-1" edge="1">
          <mxGeometry relative="1" as="geometry">
            <mxPoint x="330" y="288" as="sourcePoint" />
            <mxPoint x="398" y="350" as="targetPoint" />
          </mxGeometry>
        </mxCell>
        <mxCell id="2oQSMmsDDmATqCNCnr3x-14" value="" style="endArrow=none;html=1;rounded=0;" parent="1" source="2oQSMmsDDmATqCNCnr3x-6" target="2oQSMmsDDmATqCNCnr3x-1" edge="1">
          <mxGeometry relative="1" as="geometry">
            <mxPoint x="417" y="290" as="sourcePoint" />
            <mxPoint x="408" y="360" as="targetPoint" />
          </mxGeometry>
        </mxCell>
        <mxCell id="2oQSMmsDDmATqCNCnr3x-15" value="" style="endArrow=none;html=1;rounded=0;" parent="1" source="mdIZ_ap28_dveiMTfhK9-1" target="2oQSMmsDDmATqCNCnr3x-1" edge="1">
          <mxGeometry relative="1" as="geometry">
            <mxPoint x="596.9988574064491" y="275.0249104490963" as="sourcePoint" />
            <mxPoint x="442" y="350" as="targetPoint" />
          </mxGeometry>
        </mxCell>
        <mxCell id="2oQSMmsDDmATqCNCnr3x-16" value="" style="endArrow=none;html=1;rounded=0;" parent="1" source="2oQSMmsDDmATqCNCnr3x-8" target="2oQSMmsDDmATqCNCnr3x-1" edge="1">
          <mxGeometry relative="1" as="geometry">
            <mxPoint x="607" y="285" as="sourcePoint" />
            <mxPoint x="464" y="350" as="targetPoint" />
          </mxGeometry>
        </mxCell>
        <mxCell id="mdIZ_ap28_dveiMTfhK9-1" value="BeReport" style="ellipse;shape=doubleEllipse;margin=3;whiteSpace=wrap;html=1;align=center;" vertex="1" parent="1">
          <mxGeometry x="580" y="240" width="100" height="40" as="geometry" />
        </mxCell>
        <mxCell id="mdIZ_ap28_dveiMTfhK9-2" value="User" style="ellipse;whiteSpace=wrap;html=1;align=center;" vertex="1" parent="1">
          <mxGeometry x="530" y="170" width="100" height="40" as="geometry" />
        </mxCell>
        <mxCell id="mdIZ_ap28_dveiMTfhK9-3" value="" style="endArrow=none;html=1;rounded=0;" edge="1" parent="1" source="mdIZ_ap28_dveiMTfhK9-2" target="mdIZ_ap28_dveiMTfhK9-1">
          <mxGeometry relative="1" as="geometry">
            <mxPoint x="590" y="370" as="sourcePoint" />
            <mxPoint x="750" y="370" as="targetPoint" />
          </mxGeometry>
        </mxCell>
      </root>
    </mxGraphModel>
  </diagram>
</mxfile>
